<svg xmlns="http://www.w3.org/2000/svg" width="1200" height="630" viewBox="0 0 1200 630">
  <defs>
    <linearGradient id="bg" x1="0" y1="0" x2="1" y2="1">
      <stop offset="0%" stop-color="#0b1220"/>
      <stop offset="100%" stop-color="#111827"/>
    </linearGradient>
    <radialGradient id="glow" cx="0.85" cy="0.15" r="0.6">
      <stop offset="0%" stop-color="#1d4ed8" stop-opacity="0.45"/>
      <stop offset="100%" stop-color="#1d4ed8" stop-opacity="0"/>
    </radialGradient>
    <pattern id="grid" width="48" height="48" patternUnits="userSpaceOnUse">
      <path d="M 48 0 L 0 0 0 48" fill="none" stroke="#ffffff" stroke-opacity="0.04" stroke-width="1"/>
    </pattern>
  </defs>
  <rect width="1200" height="630" fill="url(#bg)"/>
  <rect width="1200" height="630" fill="url(#grid)"/>
  <rect width="1200" height="630" fill="url(#glow)"/>

  <g transform="translate(80,92)">
    <rect x="0" y="0" width="64" height="64" rx="16" fill="#ffffff"/>
    <path d="M32 12 C24 22 18 30 18 38 a14 14 0 0 0 28 0 c0-8-6-16-14-26z" fill="#0b1220"/>
  </g>
  <text x="168" y="140" font-family="Inter, system-ui, sans-serif" font-size="22" font-weight="600" fill="#ffffff" letter-spacing="4">PLOMERÍA ALPHA</text>
  <text x="168" y="170" font-family="Inter, system-ui, sans-serif" font-size="16" fill="#94a3b8" letter-spacing="3">ZONA NORTE · GBA</text>

  <text x="80" y="310" font-family="Fraunces, Georgia, serif" font-size="86" font-weight="600" fill="#ffffff">Plomería de oficio,</text>
  <text x="80" y="410" font-family="Fraunces, Georgia, serif" font-size="86" font-weight="400" font-style="italic" fill="#60a5fa">sin vueltas.</text>

  <g transform="translate(80,480)" font-family="Inter, system-ui, sans-serif" font-size="22" fill="#cbd5e1">
    <circle cx="8" cy="-6" r="6" fill="#22c55e"/>
    <text x="28" y="0">Urgencias 24/7</text>
    <circle cx="248" cy="-6" r="6" fill="#22c55e"/>
    <text x="268" y="0">Gas matriculado</text>
    <circle cx="528" cy="-6" r="6" fill="#22c55e"/>
    <text x="548" y="0">Garantía escrita</text>
  </g>

  <text x="80" y="570" font-family="Inter, system-ui, sans-serif" font-size="20" fill="#64748b">plomeriaalpha.com.ar</text>
</svg>
